# xmcd
#
# Track frame offsets: 
#        150
#        14687
#        27845
#
# Disc length: 710 seconds
#
# Revision: 0
# Processed by: cddbd v1.5.2PL0 Copyright (c) Steve Scherf et al.
# Submitted via: ExactAudioCopy v1.3
#
DISCID=1c02c403
DTITLE=Scott 4 - Lefturno
DYEAR=1999
DGENRE=Alternative
TTITLE0=Lefturno (video)
TTITLE1=Lefturno (The Wiseguys Remix) (edit)
TTITLE2=Sony
EXTD=
EXTT0=
EXTT1=
EXTT2=
PLAYORDER=
